# xmcd
# 
# Track frame offsets:
#     180
#     34944
#     43175
#     59158
#     120727
#     130291
#     141085
#     147790
#     163660
#     171769
#     203144
#     223545
#     227921
#     257318
# 
# Disc length: 3500
# 
# Revision: 1
# Processed by: cddbd v1.5.2PL0 Copyright (c) Steve Scherf et al.
# Submitted via: BonkEnc v1.0.6
# 
DISCID=d40daa0e
DTITLE=Hank Roberts - 22 Yesrs From Now
DYEAR=1996
DGENRE=Contemporary Jazz
TTITLE0=Heavenly Mother
TTITLE1=22 Years From Now
TTITLE2=Abshi Ehn
TTITLE3=Ruby Cares
TTITLE4=Built To Race
TTITLE5=Kermit
TTITLE6=Sat - Sun
TTITLE7=4 Suits Of Rags
TTITLE8=Sky Blue High
TTITLE9=They'll Still Be Together
TTITLE10=T2 #4
TTITLE11=Grandfathers At The Speed Of Light
TTITLE12=Azul
TTITLE13=Nyekem Wicka
EXTD=
EXTT0=
EXTT1=
EXTT2=
EXTT3=
EXTT4=
EXTT5=
EXTT6=
EXTT7=
EXTT8=
EXTT9=
EXTT10=
EXTT11=
EXTT12=
EXTT13=
PLAYORDER=
